<svg width="68" height="24" viewBox="0 0 68 24" fill="none" xmlns="http://www.w3.org/2000/svg">
<rect x="0.3" y="0.3" width="67.4" height="23.4" rx="11.7" fill="#97CDF4" fill-opacity="0.12"/>
<rect x="0.3" y="0.3" width="67.4" height="23.4" rx="11.7" stroke="#0095FF" stroke-width="0.6"/>
<path d="M22.5688 12.7021C21.8133 10.5072 21.3962 9.2736 21.3174 9.00146C21.3174 9.00146 20.8823 10.235 20.0122 12.7021H22.5688ZM23.7988 16L22.8696 13.481H19.7007L18.7393 16H17.7939L20.8447 8.04004H21.7954L24.7549 16H23.7988ZM26.9517 16L24.6689 10.1079H25.6304L26.9302 13.6099C26.9302 13.6099 27.1092 14.1076 27.4673 15.103C27.589 14.7199 27.7573 14.2257 27.9722 13.6206C28.2443 12.8579 28.6668 11.687 29.2397 10.1079H30.1958L27.9292 16H26.9517ZM34.3047 11.1982C34.0433 10.8831 33.6834 10.7256 33.2251 10.7256C32.7668 10.7256 32.3926 10.8885 32.1025 11.2144C31.8125 11.5366 31.6424 11.9788 31.5923 12.541H34.7021C34.7021 11.9574 34.5697 11.5098 34.3047 11.1982ZM33.4023 16.1235C32.5465 16.1235 31.8716 15.8514 31.3774 15.3071C30.8869 14.7629 30.6416 14.0181 30.6416 13.0728C30.6416 12.1597 30.8797 11.4202 31.356 10.8545C31.8322 10.2852 32.4588 9.99512 33.2358 9.98438C33.9663 9.98438 34.5446 10.235 34.9707 10.7363C35.4004 11.234 35.6152 11.9001 35.6152 12.7344C35.6152 12.7773 35.6134 12.8561 35.6099 12.9707C35.6099 13.0853 35.6099 13.1676 35.6099 13.2178H31.5654C31.5762 13.8874 31.748 14.4102 32.0811 14.7861C32.4176 15.1585 32.8688 15.3447 33.4346 15.3447C34.0576 15.3447 34.6825 15.18 35.3091 14.8506L35.4487 15.5757C34.8507 15.9409 34.1686 16.1235 33.4023 16.1235ZM39.5039 10.0542C39.665 10.0542 39.8118 10.0649 39.9443 10.0864L39.9121 10.9136C39.7474 10.8849 39.6042 10.8706 39.4824 10.8706C38.9811 10.8706 38.5729 11.0461 38.2578 11.397C37.9463 11.7443 37.7905 12.1758 37.7905 12.6914V16H36.8936C36.89 12.3835 36.8882 10.4194 36.8882 10.1079H37.6348L37.7207 11.166C37.9248 10.833 38.1844 10.5645 38.4995 10.3604C38.8146 10.1562 39.1494 10.0542 39.5039 10.0542ZM42.4634 15.3984C42.8895 15.3984 43.2637 15.2821 43.5859 15.0493C43.9118 14.813 44.1213 14.4961 44.2144 14.0986V13.105C44.1965 13.105 44.0872 13.1139 43.8867 13.1318C43.6898 13.1497 43.5609 13.1605 43.5 13.1641C42.723 13.2321 42.1805 13.3592 41.8726 13.5454C41.5682 13.7316 41.416 14.0306 41.416 14.4424C41.416 14.7575 41.5091 14.9956 41.6953 15.1567C41.8815 15.3179 42.1375 15.3984 42.4634 15.3984ZM44.4131 16C44.3594 15.7708 44.3075 15.5238 44.2573 15.2588C43.9315 15.5846 43.6253 15.8102 43.3389 15.9355C43.0524 16.0609 42.7158 16.1235 42.3291 16.1235C41.7777 16.1235 41.3337 15.9803 40.9971 15.6938C40.6641 15.4038 40.4976 14.9884 40.4976 14.4478C40.4976 13.8462 40.7249 13.4004 41.1797 13.1104C41.638 12.8203 42.2969 12.6395 43.1562 12.5679C43.2744 12.5571 43.4517 12.5428 43.688 12.5249C43.9279 12.5034 44.1069 12.4873 44.2251 12.4766V11.9556C44.2251 11.5402 44.1284 11.2323 43.9351 11.0317C43.7417 10.8312 43.4373 10.731 43.022 10.731C42.4419 10.731 41.8564 10.8742 41.2656 11.1606C41.2477 11.1177 41.2012 10.9941 41.126 10.79C41.0508 10.5824 41.0114 10.4749 41.0078 10.4678C41.2692 10.321 41.5789 10.2046 41.937 10.1187C42.2987 10.0291 42.6657 9.98438 43.0381 9.98438C43.7721 9.98438 44.3003 10.1455 44.6226 10.4678C44.9484 10.7865 45.1113 11.3307 45.1113 12.1006V16H44.4131ZM48.9463 15.2319C49.2507 15.2319 49.5174 15.1782 49.7466 15.0708C49.9757 14.9634 50.1548 14.8148 50.2837 14.625C50.4126 14.4352 50.5075 14.224 50.5684 13.9912C50.6328 13.7585 50.665 13.5042 50.665 13.2285V12.7935C50.665 12.507 50.6328 12.2438 50.5684 12.0039C50.5039 11.7604 50.4036 11.5438 50.2676 11.354C50.1351 11.1606 49.9561 11.0103 49.7305 10.9028C49.5085 10.7954 49.2489 10.7417 48.9517 10.7417C48.7046 10.7417 48.479 10.7882 48.2749 10.8813C48.0744 10.9744 47.9079 11.098 47.7754 11.252C47.6465 11.4023 47.5355 11.5796 47.4424 11.7837C47.3529 11.9842 47.2884 12.1883 47.249 12.396C47.2096 12.6037 47.1899 12.8132 47.1899 13.0244C47.1899 13.2321 47.2114 13.438 47.2544 13.6421C47.2974 13.8462 47.3654 14.0449 47.4585 14.2383C47.5516 14.4316 47.6644 14.6017 47.7969 14.7485C47.9294 14.8918 48.0941 15.0081 48.291 15.0977C48.4915 15.1872 48.71 15.2319 48.9463 15.2319ZM47.5659 18.6963L47.4854 17.8853H48.5811C48.8854 17.8853 49.1504 17.8638 49.376 17.8208C49.6016 17.7778 49.7896 17.7062 49.9399 17.606C50.0903 17.5093 50.2121 17.4001 50.3052 17.2783C50.3983 17.1602 50.4681 17.0044 50.5146 16.811C50.5648 16.6213 50.597 16.4315 50.6113 16.2417C50.6292 16.0555 50.6382 15.8263 50.6382 15.5542V15.0332C50.4233 15.3411 50.1745 15.5793 49.8916 15.7476C49.6087 15.9123 49.2489 15.9946 48.812 15.9946C48.4754 15.9946 48.1639 15.9373 47.8774 15.8228C47.5946 15.7046 47.3547 15.5488 47.1577 15.3555C46.9644 15.1621 46.7979 14.9383 46.6582 14.6841C46.5221 14.4299 46.4219 14.1667 46.3574 13.8945C46.2965 13.6224 46.2661 13.3485 46.2661 13.0728C46.2661 12.6431 46.318 12.2456 46.4219 11.8804C46.5293 11.5151 46.6868 11.1893 46.8945 10.9028C47.1022 10.6164 47.3743 10.3926 47.7109 10.2314C48.0511 10.0667 48.4396 9.98438 48.8765 9.98438C49.2632 9.98438 49.5998 10.0596 49.8862 10.21C50.1763 10.3568 50.4359 10.5841 50.665 10.8921V10.1079H51.5405V15.5757C51.5405 15.8263 51.5334 16.0448 51.519 16.231C51.5083 16.4207 51.4779 16.6302 51.4277 16.8594C51.3812 17.0885 51.3167 17.2855 51.2344 17.4502C51.152 17.6149 51.0356 17.7796 50.8853 17.9443C50.7384 18.1126 50.5612 18.2469 50.3535 18.3472C50.1494 18.451 49.8952 18.5352 49.5908 18.5996C49.2865 18.6641 48.9427 18.6963 48.5596 18.6963H47.5659ZM56.4336 11.1982C56.1722 10.8831 55.8123 10.7256 55.354 10.7256C54.8957 10.7256 54.5215 10.8885 54.2314 11.2144C53.9414 11.5366 53.7713 11.9788 53.7212 12.541H56.8311C56.8311 11.9574 56.6986 11.5098 56.4336 11.1982ZM55.5312 16.1235C54.6755 16.1235 54.0005 15.8514 53.5063 15.3071C53.0158 14.7629 52.7705 14.0181 52.7705 13.0728C52.7705 12.1597 53.0086 11.4202 53.4849 10.8545C53.9611 10.2852 54.5877 9.99512 55.3647 9.98438C56.0952 9.98438 56.6735 10.235 57.0996 10.7363C57.5293 11.234 57.7441 11.9001 57.7441 12.7344C57.7441 12.7773 57.7424 12.8561 57.7388 12.9707C57.7388 13.0853 57.7388 13.1676 57.7388 13.2178H53.6943C53.7051 13.8874 53.877 14.4102 54.21 14.7861C54.5465 15.1585 54.9977 15.3447 55.5635 15.3447C56.1865 15.3447 56.8114 15.18 57.438 14.8506L57.5776 15.5757C56.9797 15.9409 56.2975 16.1235 55.5312 16.1235Z" fill="#1F263E"/>
<ellipse cx="11.079" cy="11.9252" rx="3.07902" ry="2.92517" fill="#0095FF"/>
</svg>
