<svg width="58" height="24" viewBox="0 0 58 24" fill="none" xmlns="http://www.w3.org/2000/svg">
<rect x="0.3" y="0.3" width="57.4" height="23.4" rx="11.7" fill="#97CDF4" fill-opacity="0.12"/>
<rect x="0.3" y="0.3" width="57.4" height="23.4" rx="11.7" stroke="#0095FF" stroke-width="0.6"/>
<path d="M26.5776 15.5112L24.1392 9.83936L23.9351 9.29688L23.9727 11.2412V16H23.1025V8.05615H24.3057L27.0718 14.3833L29.811 8.05615H30.9819V16H30.0796V11.2197L30.1172 9.31836L29.9185 9.86084L27.4854 15.5112H26.5776ZM34.3979 15.3984C34.8241 15.3984 35.1982 15.2821 35.5205 15.0493C35.8464 14.813 36.0558 14.4961 36.1489 14.0986V13.105C36.131 13.105 36.0218 13.1139 35.8213 13.1318C35.6243 13.1497 35.4954 13.1605 35.4346 13.1641C34.6576 13.2321 34.1151 13.3592 33.8071 13.5454C33.5028 13.7316 33.3506 14.0306 33.3506 14.4424C33.3506 14.7575 33.4437 14.9956 33.6299 15.1567C33.8161 15.3179 34.0721 15.3984 34.3979 15.3984ZM36.3477 16C36.2939 15.7708 36.242 15.5238 36.1919 15.2588C35.866 15.5846 35.5599 15.8102 35.2734 15.9355C34.987 16.0609 34.6504 16.1235 34.2637 16.1235C33.7122 16.1235 33.2682 15.9803 32.9316 15.6938C32.5986 15.4038 32.4321 14.9884 32.4321 14.4478C32.4321 13.8462 32.6595 13.4004 33.1143 13.1104C33.5726 12.8203 34.2314 12.6395 35.0908 12.5679C35.209 12.5571 35.3862 12.5428 35.6226 12.5249C35.8625 12.5034 36.0415 12.4873 36.1597 12.4766V11.9556C36.1597 11.5402 36.063 11.2323 35.8696 11.0317C35.6763 10.8312 35.3719 10.731 34.9565 10.731C34.3765 10.731 33.791 10.8742 33.2002 11.1606C33.1823 11.1177 33.1357 10.9941 33.0605 10.79C32.9854 10.5824 32.946 10.4749 32.9424 10.4678C33.2038 10.321 33.5135 10.2046 33.8716 10.1187C34.2332 10.0291 34.6003 9.98438 34.9727 9.98438C35.7067 9.98438 36.2349 10.1455 36.5571 10.4678C36.883 10.7865 37.0459 11.3307 37.0459 12.1006V16H36.3477ZM40.1772 16.1074C39.6043 16.1074 39.1979 15.9535 38.958 15.6455C38.7217 15.3376 38.6035 14.8022 38.6035 14.0396V7.81982L39.4951 7.76611V13.6851C39.4951 13.9285 39.4969 14.1237 39.5005 14.2705C39.5076 14.4173 39.522 14.5623 39.5435 14.7056C39.5649 14.8452 39.5936 14.9508 39.6294 15.0225C39.6652 15.0941 39.7171 15.1603 39.7852 15.2212C39.8532 15.2785 39.9338 15.3179 40.0269 15.3394C40.1235 15.3573 40.2417 15.3662 40.3813 15.3662C40.4959 15.3662 40.7215 15.3447 41.0581 15.3018L41.1064 16.0161C40.7376 16.077 40.4279 16.1074 40.1772 16.1074ZM45.0488 11.1982C44.7874 10.8831 44.4276 10.7256 43.9692 10.7256C43.5109 10.7256 43.1367 10.8885 42.8467 11.2144C42.5566 11.5366 42.3866 11.9788 42.3364 12.541H45.4463C45.4463 11.9574 45.3138 11.5098 45.0488 11.1982ZM44.1465 16.1235C43.2907 16.1235 42.6157 15.8514 42.1216 15.3071C41.631 14.7629 41.3857 14.0181 41.3857 13.0728C41.3857 12.1597 41.6239 11.4202 42.1001 10.8545C42.5763 10.2852 43.203 9.99512 43.98 9.98438C44.7104 9.98438 45.2887 10.235 45.7148 10.7363C46.1445 11.234 46.3594 11.9001 46.3594 12.7344C46.3594 12.7773 46.3576 12.8561 46.354 12.9707C46.354 13.0853 46.354 13.1676 46.354 13.2178H42.3096C42.3203 13.8874 42.4922 14.4102 42.8252 14.7861C43.1618 15.1585 43.613 15.3447 44.1787 15.3447C44.8018 15.3447 45.4266 15.18 46.0532 14.8506L46.1929 15.5757C45.5949 15.9409 44.9128 16.1235 44.1465 16.1235Z" fill="#1F263E"/>
<ellipse cx="14.079" cy="11.9252" rx="3.07902" ry="2.92517" fill="#0095FF"/>
</svg>
