<svg width="65" height="24" viewBox="0 0 65 24" fill="none" xmlns="http://www.w3.org/2000/svg">
<rect x="0.3" y="0.3" width="64.4" height="23.4" rx="11.7" fill="#97CDF4" fill-opacity="0.12"/>
<rect x="0.3" y="0.3" width="64.4" height="23.4" rx="11.7" stroke="#0095FF" stroke-width="0.6"/>
<path d="M24.0859 12.7021C23.3304 10.5072 22.9132 9.2736 22.8345 9.00146C22.8345 9.00146 22.3994 10.235 21.5293 12.7021H24.0859ZM25.3159 16L24.3867 13.481H21.2178L20.2563 16H19.311L22.3618 8.04004H23.3125L26.272 16H25.3159ZM29.355 15.3501C29.9458 15.3501 30.3844 15.1603 30.6709 14.7808C30.9609 14.4012 31.106 13.8587 31.106 13.1533C31.106 12.3584 30.9663 11.7604 30.687 11.3594C30.4113 10.9548 29.9637 10.7524 29.3442 10.7524C29.0685 10.7524 28.825 10.8115 28.6138 10.9297C28.4025 11.0479 28.2324 11.2126 28.1035 11.4238C27.9746 11.6351 27.8761 11.8786 27.8081 12.1543C27.7437 12.4264 27.7114 12.7254 27.7114 13.0513C27.7114 13.5096 27.7669 13.9071 27.8779 14.2437C27.9925 14.5802 28.1751 14.8488 28.4258 15.0493C28.6764 15.2498 28.9862 15.3501 29.355 15.3501ZM31.1221 15.146C30.9287 15.4432 30.6709 15.6795 30.3486 15.855C30.0264 16.0304 29.6665 16.1182 29.269 16.1182C28.492 16.1182 27.8833 15.8424 27.4429 15.291C27.0024 14.736 26.7822 13.9823 26.7822 13.0298C26.7822 12.1203 27.006 11.3862 27.4536 10.8276C27.9012 10.2655 28.501 9.98438 29.2529 9.98438C29.6432 9.98438 30.0103 10.0703 30.354 10.2422C30.7013 10.4105 30.9609 10.6379 31.1328 10.9243L31.1167 10.4141V7.81982L32.0029 7.76611V16H31.2402L31.1221 15.146ZM33.3618 14.0342V10.1079H34.2642V14.0449C34.2642 14.3027 34.3 14.5212 34.3716 14.7002C34.4468 14.8792 34.5524 15.0189 34.6885 15.1191C34.8281 15.2158 34.9839 15.2856 35.1558 15.3286C35.3312 15.3716 35.5317 15.3931 35.7573 15.3931C36.2228 15.3931 36.5845 15.291 36.8423 15.0869C37.1037 14.8828 37.2344 14.5355 37.2344 14.0449V10.1079H38.1367V14.0342C38.1367 14.335 38.0938 14.6053 38.0078 14.8452C37.9219 15.0851 37.8055 15.2856 37.6587 15.4468C37.5155 15.6043 37.3418 15.735 37.1377 15.8389C36.9336 15.9427 36.717 16.0179 36.4878 16.0645C36.2622 16.111 36.0187 16.1343 35.7573 16.1343C35.4995 16.1343 35.256 16.111 35.0269 16.0645C34.7977 16.0179 34.5793 15.9427 34.3716 15.8389C34.1675 15.7314 33.9902 15.599 33.8398 15.4414C33.693 15.2803 33.5767 15.0798 33.4907 14.8398C33.4048 14.5999 33.3618 14.3314 33.3618 14.0342ZM41.0586 16.1074C40.4857 16.1074 40.0793 15.9535 39.8394 15.6455C39.603 15.3376 39.4849 14.8022 39.4849 14.0396V7.81982L40.3765 7.76611V13.6851C40.3765 13.9285 40.3783 14.1237 40.3818 14.2705C40.389 14.4173 40.4033 14.5623 40.4248 14.7056C40.4463 14.8452 40.4749 14.9508 40.5107 15.0225C40.5465 15.0941 40.5985 15.1603 40.6665 15.2212C40.7345 15.2785 40.8151 15.3179 40.9082 15.3394C41.0049 15.3573 41.123 15.3662 41.2627 15.3662C41.3773 15.3662 41.6029 15.3447 41.9395 15.3018L41.9878 16.0161C41.619 16.077 41.3092 16.1074 41.0586 16.1074ZM44.4155 16.1074C43.8354 16.1074 43.4237 15.966 43.1802 15.6831C42.9367 15.4002 42.8078 14.9437 42.7935 14.3135V10.7739H41.918L41.9556 10.1831L42.7881 10.1079L43.0942 8.75977L43.6851 8.73828V10.1079H45.3232V10.7739H43.6851V14.1523C43.6851 14.5999 43.7531 14.915 43.8892 15.0977C44.0252 15.2803 44.258 15.3716 44.5874 15.3716C44.7056 15.3716 44.9616 15.3429 45.3555 15.2856L45.3931 15.9946C44.967 16.0698 44.6411 16.1074 44.4155 16.1074ZM48.1055 16.1235C47.7044 16.1235 47.3338 16.0806 46.9937 15.9946C46.6571 15.9087 46.3831 15.7977 46.1719 15.6616L46.2847 14.9043C46.8826 15.223 47.4699 15.3823 48.0464 15.3823C48.9201 15.3823 49.3695 15.0744 49.3945 14.4585C49.3945 14.1971 49.3014 13.9912 49.1152 13.8408C48.929 13.6904 48.5638 13.5221 48.0195 13.3359L47.5737 13.1802C47.0581 13.0083 46.6893 12.7952 46.4673 12.541C46.2489 12.2868 46.1379 11.9699 46.1343 11.5903C46.1343 11.1284 46.3187 10.7453 46.6875 10.4409C47.0599 10.1366 47.5684 9.98438 48.2129 9.98438C48.8789 9.98438 49.4858 10.1133 50.0337 10.3711L49.7705 11.0586C49.2155 10.8294 48.6963 10.7148 48.2129 10.7148C47.8369 10.7148 47.5415 10.79 47.3267 10.9404C47.1154 11.0872 47.0098 11.2949 47.0098 11.5635C47.0098 11.7926 47.0868 11.9681 47.2407 12.0898C47.3947 12.2116 47.7026 12.3512 48.1646 12.5088C48.2827 12.5518 48.4313 12.6019 48.6104 12.6592C49.2048 12.8525 49.6255 13.0817 49.8726 13.3467C50.1196 13.6081 50.2432 13.9626 50.2432 14.4102C50.236 14.9544 50.0409 15.377 49.6577 15.6777C49.2746 15.9749 48.7572 16.1235 48.1055 16.1235Z" fill="#1F263E"/>
<ellipse cx="10.079" cy="11.9252" rx="3.07902" ry="2.92517" fill="#0095FF"/>
</svg>
