<svg width="94" height="30" viewBox="0 0 94 30" fill="none" xmlns="http://www.w3.org/2000/svg">
<g clip-path="url(#clip0_348_707)">
<g opacity="0.296578" filter="url(#filter0_f_348_707)">
<rect x="4.62305" y="8.45172" width="86.2951" height="20" rx="4" fill="url(#paint0_linear_348_707)"/>
</g>
<rect x="1.4873" y="0.769897" width="92.459" height="21" rx="4" fill="url(#paint1_linear_348_707)"/>
<path d="M21.8198 10.4986C21.8198 9.38857 21.5334 8.58112 20.9604 8.07623C20.3875 7.57135 19.5532 7.31891 18.4575 7.31891H17.2114V13.6407H18.6133C19.6589 13.6407 20.4538 13.3775 20.998 12.8511C21.5459 12.3212 21.8198 11.537 21.8198 10.4986ZM22.8135 10.4717C22.8135 11.7644 22.4465 12.7509 21.7124 13.4312C20.9784 14.1116 19.9543 14.4517 18.6401 14.4517H16.2822V6.50787H18.4844C19.1468 6.50787 19.7394 6.58665 20.2622 6.7442C20.785 6.89817 21.238 7.1345 21.6211 7.45319C22.0078 7.76829 22.3032 8.18186 22.5073 8.69391C22.7114 9.20237 22.8135 9.79498 22.8135 10.4717ZM24.8384 11.5191C24.8384 12.2173 24.9924 12.7777 25.3003 13.2003C25.6118 13.6192 26.0648 13.8287 26.6592 13.8287C27.2464 13.8287 27.6886 13.6192 27.9858 13.2003C28.2866 12.7813 28.437 12.2173 28.437 11.5084C28.437 10.7886 28.2884 10.2229 27.9912 9.8111C27.6976 9.39573 27.2482 9.18805 26.6431 9.18805C26.0558 9.18805 25.6082 9.39931 25.3003 9.82184C24.9924 10.2444 24.8384 10.8101 24.8384 11.5191ZM29.3662 11.503C29.3662 12.4161 29.1227 13.1573 28.6357 13.7266C28.1488 14.2924 27.4756 14.5753 26.6162 14.5753C25.7891 14.5753 25.1302 14.2888 24.6396 13.7159C24.1527 13.143 23.9092 12.4071 23.9092 11.5084C23.9092 10.5917 24.1545 9.85048 24.645 9.28473C25.1356 8.71897 25.8088 8.4361 26.6646 8.4361C27.506 8.4361 28.1667 8.72076 28.6465 9.2901C29.1263 9.85586 29.3662 10.5935 29.3662 11.503ZM35.6826 14.4517C34.8555 11.8091 34.3434 10.1638 34.1465 9.51569C34.0355 9.90957 33.9084 10.3357 33.7651 10.794C33.6219 11.2523 33.4966 11.6462 33.3892 11.9756C33.2817 12.3051 33.1421 12.7312 32.9702 13.254C32.7983 13.7768 32.6676 14.176 32.5781 14.4517H31.6113L29.9302 8.55963H30.8594L32.1216 13.3829C32.297 12.81 32.8127 11.2022 33.6685 8.55963H34.6836C35.5358 11.2595 36.0371 12.8619 36.1875 13.3668L37.4336 8.55963H38.3521L36.6548 14.4517H35.6826ZM39.2222 14.4517V8.55963H39.9741L40.0869 9.40289C40.3197 9.11285 40.6097 8.88011 40.957 8.70465C41.3079 8.52561 41.6857 8.4361 42.0903 8.4361C42.7707 8.4361 43.2738 8.62767 43.5996 9.0108C43.9255 9.39036 44.0884 9.97581 44.0884 10.7672V14.4517H43.1914C43.1914 12.0884 43.1896 10.8227 43.186 10.6544C43.1717 10.1531 43.0697 9.78603 42.8799 9.55328C42.6937 9.32054 42.3804 9.20416 41.9399 9.20416C41.478 9.20416 41.0931 9.31517 40.7852 9.53717C40.4772 9.75918 40.2767 10.0474 40.1836 10.4019C40.1478 10.6418 40.1299 10.9175 40.1299 11.2291V14.4517H39.2222ZM47.166 14.5591C46.5931 14.5591 46.1867 14.4052 45.9468 14.0972C45.7104 13.7893 45.5923 13.254 45.5923 12.4913V6.27155L46.4839 6.21783V12.1368C46.4839 12.3803 46.4857 12.5754 46.4893 12.7222C46.4964 12.869 46.5107 13.0141 46.5322 13.1573C46.5537 13.2969 46.5824 13.4026 46.6182 13.4742C46.654 13.5458 46.7059 13.612 46.7739 13.6729C46.842 13.7302 46.9225 13.7696 47.0156 13.7911C47.1123 13.809 47.2305 13.8179 47.3701 13.8179C47.4847 13.8179 47.7103 13.7964 48.0469 13.7535L48.0952 14.4678C47.7264 14.5287 47.4167 14.5591 47.166 14.5591ZM49.2983 11.5191C49.2983 12.2173 49.4523 12.7777 49.7603 13.2003C50.0718 13.6192 50.5247 13.8287 51.1191 13.8287C51.7064 13.8287 52.1486 13.6192 52.4458 13.2003C52.7466 12.7813 52.897 12.2173 52.897 11.5084C52.897 10.7886 52.7484 10.2229 52.4512 9.8111C52.1576 9.39573 51.7082 9.18805 51.103 9.18805C50.5158 9.18805 50.0682 9.39931 49.7603 9.82184C49.4523 10.2444 49.2983 10.8101 49.2983 11.5191ZM53.8262 11.503C53.8262 12.4161 53.5827 13.1573 53.0957 13.7266C52.6087 14.2924 51.9355 14.5753 51.0762 14.5753C50.249 14.5753 49.5902 14.2888 49.0996 13.7159C48.6126 13.143 48.3691 12.4071 48.3691 11.5084C48.3691 10.5917 48.6144 9.85048 49.105 9.28473C49.5955 8.71897 50.2687 8.4361 51.1245 8.4361C51.966 8.4361 52.6266 8.72076 53.1064 9.2901C53.5863 9.85586 53.8262 10.5935 53.8262 11.503ZM56.7158 13.8502C57.1419 13.8502 57.5161 13.7338 57.8384 13.501C58.1642 13.2647 58.3737 12.9478 58.4668 12.5504V11.5567C58.4489 11.5567 58.3397 11.5657 58.1392 11.5836C57.9422 11.6015 57.8133 11.6122 57.7524 11.6158C56.9754 11.6838 56.4329 11.8109 56.125 11.9971C55.8206 12.1833 55.6685 12.4823 55.6685 12.8941C55.6685 13.2092 55.7616 13.4473 55.9478 13.6085C56.134 13.7696 56.39 13.8502 56.7158 13.8502ZM58.6655 14.4517C58.6118 14.2226 58.5599 13.9755 58.5098 13.7105C58.1839 14.0364 57.8778 14.2619 57.5913 14.3873C57.3049 14.5126 56.9683 14.5753 56.5815 14.5753C56.0301 14.5753 55.5861 14.432 55.2495 14.1456C54.9165 13.8555 54.75 13.4402 54.75 12.8995C54.75 12.2979 54.9774 11.8521 55.4321 11.5621C55.8905 11.272 56.5493 11.0912 57.4087 11.0196C57.5269 11.0089 57.7041 10.9945 57.9404 10.9766C58.1803 10.9551 58.3594 10.939 58.4775 10.9283V10.4073C58.4775 9.99192 58.3809 9.68398 58.1875 9.48346C57.9941 9.28294 57.6898 9.18268 57.2744 9.18268C56.6943 9.18268 56.1089 9.32591 55.5181 9.61237C55.5002 9.5694 55.4536 9.44586 55.3784 9.24176C55.3032 9.03408 55.2638 8.92666 55.2603 8.91949C55.5216 8.77268 55.8314 8.65631 56.1895 8.57037C56.5511 8.48086 56.9181 8.4361 57.2905 8.4361C58.0246 8.4361 58.5527 8.59723 58.875 8.91949C59.2008 9.23818 59.3638 9.78245 59.3638 10.5523V14.4517H58.6655ZM63.2095 13.8018C63.8003 13.8018 64.2389 13.612 64.5254 13.2325C64.8154 12.8529 64.9604 12.3104 64.9604 11.605C64.9604 10.8101 64.8208 10.2121 64.5415 9.8111C64.2658 9.40647 63.8182 9.20416 63.1987 9.20416C62.923 9.20416 62.6795 9.26324 62.4683 9.38141C62.257 9.49957 62.0869 9.66429 61.958 9.87555C61.8291 10.0868 61.7306 10.3303 61.6626 10.606C61.5981 10.8782 61.5659 11.1771 61.5659 11.503C61.5659 11.9613 61.6214 12.3588 61.7324 12.6954C61.847 13.032 62.0296 13.3005 62.2803 13.501C62.5309 13.7016 62.8407 13.8018 63.2095 13.8018ZM64.9766 13.5977C64.7832 13.8949 64.5254 14.1312 64.2031 14.3067C63.8809 14.4822 63.521 14.5699 63.1235 14.5699C62.3465 14.5699 61.7378 14.2942 61.2974 13.7427C60.8569 13.1877 60.6367 12.434 60.6367 11.4815C60.6367 10.572 60.8605 9.83795 61.3081 9.27936C61.7557 8.71718 62.3555 8.4361 63.1074 8.4361C63.4977 8.4361 63.8647 8.52203 64.2085 8.69391C64.5558 8.8622 64.8154 9.08958 64.9873 9.37604L64.9712 8.86578V6.27155L65.8574 6.21783V14.4517H65.0947L64.9766 13.5977Z" fill="white"/>
<path d="M78.0781 8.52877C77.9615 8.41216 77.896 8.25401 77.896 8.08911C77.896 7.92421 77.9615 7.76606 78.0781 7.64946C78.1947 7.53285 78.3529 7.46735 78.5178 7.46735C78.6827 7.46735 78.8408 7.53285 78.9574 7.64946L80.3793 9.07239V5.19308C80.3793 5.02846 80.4447 4.87059 80.5611 4.75418C80.6775 4.63778 80.8354 4.57239 81 4.57239C81.1646 4.57239 81.3225 4.63778 81.4389 4.75418C81.5553 4.87059 81.6207 5.02846 81.6207 5.19308V9.07239L83.0436 7.64894C83.1602 7.53234 83.3184 7.46683 83.4833 7.46683C83.6482 7.46683 83.8063 7.53234 83.9229 7.64894C84.0395 7.76554 84.105 7.92369 84.105 8.08859C84.105 8.2535 84.0395 8.41165 83.9229 8.52825L81.4402 11.011C81.3825 11.0689 81.314 11.1148 81.2385 11.1461C81.1631 11.1774 81.0822 11.1936 81.0005 11.1936C80.9188 11.1936 80.8379 11.1774 80.7625 11.1461C80.687 11.1148 80.6185 11.0689 80.5609 11.011L78.0781 8.52877ZM85.9655 9.9517H84.1034C83.9388 9.9517 83.781 10.0171 83.6646 10.1335C83.5482 10.2499 83.4828 10.4078 83.4828 10.5724C83.4828 10.737 83.5482 10.8949 83.6646 11.0113C83.781 11.1277 83.9388 11.1931 84.1034 11.1931H85.7586V14.0896H76.2414V11.1931H77.8966C78.0612 11.1931 78.219 11.1277 78.3354 11.0113C78.4518 10.8949 78.5172 10.737 78.5172 10.5724C78.5172 10.4078 78.4518 10.2499 78.3354 10.1335C78.219 10.0171 78.0612 9.9517 77.8966 9.9517H76.0345C75.7601 9.9517 75.497 10.0607 75.303 10.2547C75.109 10.4487 75 10.7118 75 10.9862V14.2965C75 14.5709 75.109 14.834 75.303 15.028C75.497 15.222 75.7601 15.331 76.0345 15.331H85.9655C86.2399 15.331 86.503 15.222 86.697 15.028C86.891 14.834 87 14.5709 87 14.2965V10.9862C87 10.7118 86.891 10.4487 86.697 10.2547C86.503 10.0607 86.2399 9.9517 85.9655 9.9517ZM84.931 12.6414C84.931 12.4777 84.8825 12.3177 84.7916 12.1816C84.7006 12.0455 84.5714 11.9394 84.4202 11.8768C84.2689 11.8141 84.1025 11.7977 83.942 11.8297C83.7815 11.8616 83.634 11.9404 83.5183 12.0562C83.4025 12.1719 83.3237 12.3194 83.2918 12.4799C83.2598 12.6404 83.2762 12.8068 83.3389 12.9581C83.4015 13.1093 83.5076 13.2385 83.6437 13.3295C83.7798 13.4204 83.9398 13.4689 84.1034 13.4689C84.3229 13.4689 84.5334 13.3817 84.6886 13.2265C84.8438 13.0713 84.931 12.8608 84.931 12.6414Z" fill="white"/>
</g>
<defs>
<filter id="filter0_f_348_707" x="-22.5598" y="-18.7311" width="140.661" height="74.3656" filterUnits="userSpaceOnUse" color-interpolation-filters="sRGB">
<feFlood flood-opacity="0" result="BackgroundImageFix"/>
<feBlend mode="normal" in="SourceGraphic" in2="BackgroundImageFix" result="shape"/>
<feGaussianBlur stdDeviation="13.5914" result="effect1_foregroundBlur_348_707"/>
</filter>
<linearGradient id="paint0_linear_348_707" x1="26.1682" y1="22.7564" x2="64.3586" y2="-20.2541" gradientUnits="userSpaceOnUse">
<stop stop-color="#0043FF"/>
<stop offset="1" stop-color="#A370F1"/>
</linearGradient>
<linearGradient id="paint1_linear_348_707" x1="24.5714" y1="15.7898" x2="64.5675" y2="-30.1736" gradientUnits="userSpaceOnUse">
<stop stop-color="#0043FF"/>
<stop offset="1" stop-color="#A370F1"/>
</linearGradient>
<clipPath id="clip0_348_707">
<rect width="94" height="29" fill="white" transform="translate(0 0.451721)"/>
</clipPath>
</defs>
</svg>
