<svg width="65" height="24" viewBox="0 0 65 24" fill="none" xmlns="http://www.w3.org/2000/svg">
<rect x="0.3" y="0.3" width="64.4" height="23.4" rx="11.7" fill="#FFF1F2"/>
<rect x="0.3" y="0.3" width="64.4" height="23.4" rx="11.7" stroke="#E06C69" stroke-width="0.6"/>
<path d="M21.9297 16H21.0005V8.05615H25.4102L25.3726 8.87793H21.9297V11.6655H25.2114V12.4551H21.9297V16ZM29.707 11.1982C29.4456 10.8831 29.0858 10.7256 28.6274 10.7256C28.1691 10.7256 27.7949 10.8885 27.5049 11.2144C27.2148 11.5366 27.0448 11.9788 26.9946 12.541H30.1045C30.1045 11.9574 29.972 11.5098 29.707 11.1982ZM28.8047 16.1235C27.9489 16.1235 27.2739 15.8514 26.7798 15.3071C26.2892 14.7629 26.0439 14.0181 26.0439 13.0728C26.0439 12.1597 26.2821 11.4202 26.7583 10.8545C27.2345 10.2852 27.8612 9.99512 28.6382 9.98438C29.3687 9.98438 29.9469 10.235 30.373 10.7363C30.8027 11.234 31.0176 11.9001 31.0176 12.7344C31.0176 12.7773 31.0158 12.8561 31.0122 12.9707C31.0122 13.0853 31.0122 13.1676 31.0122 13.2178H26.9678C26.9785 13.8874 27.1504 14.4102 27.4834 14.7861C27.82 15.1585 28.2712 15.3447 28.8369 15.3447C29.46 15.3447 30.0848 15.18 30.7114 14.8506L30.8511 15.5757C30.2531 15.9409 29.571 16.1235 28.8047 16.1235ZM39.7456 16V12.9331C39.7456 12.6466 39.7384 12.4067 39.7241 12.2134C39.7134 12.02 39.6847 11.8231 39.6382 11.6226C39.5952 11.422 39.5326 11.2645 39.4502 11.1499C39.3714 11.0317 39.2604 10.9368 39.1172 10.8652C38.974 10.79 38.8021 10.7524 38.6016 10.7524C38.2077 10.7524 37.8711 10.8581 37.5918 11.0693C37.3161 11.2806 37.1191 11.5778 37.001 11.9609C36.9688 12.2188 36.9526 12.4945 36.9526 12.7881V16H36.0557V12.8364C36.0557 12.5715 36.0467 12.3423 36.0288 12.1489C36.0109 11.952 35.9769 11.7622 35.9268 11.5796C35.8766 11.3934 35.8086 11.243 35.7227 11.1284C35.6403 11.0138 35.5293 10.9225 35.3896 10.8545C35.25 10.7865 35.0835 10.7524 34.8901 10.7524C34.4604 10.7524 34.0988 10.8617 33.8052 11.0801C33.5151 11.2985 33.32 11.5885 33.2197 11.9502C33.1875 12.2259 33.1714 12.5249 33.1714 12.8472V16H32.2744C32.2673 12.3154 32.2637 10.3514 32.2637 10.1079H33.0156L33.1284 10.9512C33.3075 10.679 33.5617 10.4499 33.8911 10.2637C34.2205 10.0775 34.5947 9.98438 35.0137 9.98438C35.2321 9.98438 35.4326 10.0076 35.6152 10.0542C35.8014 10.0972 35.9554 10.1527 36.0771 10.2207C36.2025 10.2887 36.3135 10.3711 36.4102 10.4678C36.5068 10.5609 36.582 10.654 36.6357 10.7471C36.6895 10.8366 36.7342 10.9315 36.77 11.0317C37.1997 10.3335 37.8568 9.98438 38.7412 9.98438C39.3965 9.98438 39.8763 10.1724 40.1807 10.5483C40.4886 10.9207 40.6426 11.474 40.6426 12.208V16H39.7456ZM43.4946 15.3984C43.9207 15.3984 44.2949 15.2821 44.6172 15.0493C44.943 14.813 45.1525 14.4961 45.2456 14.0986V13.105C45.2277 13.105 45.1185 13.1139 44.918 13.1318C44.721 13.1497 44.5921 13.1605 44.5312 13.1641C43.7542 13.2321 43.2118 13.3592 42.9038 13.5454C42.5994 13.7316 42.4473 14.0306 42.4473 14.4424C42.4473 14.7575 42.5404 14.9956 42.7266 15.1567C42.9128 15.3179 43.1688 15.3984 43.4946 15.3984ZM45.4443 16C45.3906 15.7708 45.3387 15.5238 45.2886 15.2588C44.9627 15.5846 44.6566 15.8102 44.3701 15.9355C44.0837 16.0609 43.7471 16.1235 43.3604 16.1235C42.8089 16.1235 42.3649 15.9803 42.0283 15.6938C41.6953 15.4038 41.5288 14.9884 41.5288 14.4478C41.5288 13.8462 41.7562 13.4004 42.2109 13.1104C42.6693 12.8203 43.3281 12.6395 44.1875 12.5679C44.3057 12.5571 44.4829 12.5428 44.7192 12.5249C44.9591 12.5034 45.1382 12.4873 45.2563 12.4766V11.9556C45.2563 11.5402 45.1597 11.2323 44.9663 11.0317C44.7729 10.8312 44.4686 10.731 44.0532 10.731C43.4731 10.731 42.8877 10.8742 42.2969 11.1606C42.279 11.1177 42.2324 10.9941 42.1572 10.79C42.082 10.5824 42.0426 10.4749 42.0391 10.4678C42.3005 10.321 42.6102 10.2046 42.9683 10.1187C43.3299 10.0291 43.6969 9.98438 44.0693 9.98438C44.8034 9.98438 45.3315 10.1455 45.6538 10.4678C45.9797 10.7865 46.1426 11.3307 46.1426 12.1006V16H45.4443ZM49.2739 16.1074C48.701 16.1074 48.2946 15.9535 48.0547 15.6455C47.8184 15.3376 47.7002 14.8022 47.7002 14.0396V7.81982L48.5918 7.76611V13.6851C48.5918 13.9285 48.5936 14.1237 48.5972 14.2705C48.6043 14.4173 48.6187 14.5623 48.6401 14.7056C48.6616 14.8452 48.6903 14.9508 48.7261 15.0225C48.7619 15.0941 48.8138 15.1603 48.8818 15.2212C48.9499 15.2785 49.0304 15.3179 49.1235 15.3394C49.2202 15.3573 49.3384 15.3662 49.478 15.3662C49.5926 15.3662 49.8182 15.3447 50.1548 15.3018L50.2031 16.0161C49.8343 16.077 49.5246 16.1074 49.2739 16.1074ZM54.1455 11.1982C53.8841 10.8831 53.5243 10.7256 53.0659 10.7256C52.6076 10.7256 52.2334 10.8885 51.9434 11.2144C51.6533 11.5366 51.4832 11.9788 51.4331 12.541H54.543C54.543 11.9574 54.4105 11.5098 54.1455 11.1982ZM53.2432 16.1235C52.3874 16.1235 51.7124 15.8514 51.2183 15.3071C50.7277 14.7629 50.4824 14.0181 50.4824 13.0728C50.4824 12.1597 50.7205 11.4202 51.1968 10.8545C51.673 10.2852 52.2996 9.99512 53.0767 9.98438C53.8071 9.98438 54.3854 10.235 54.8115 10.7363C55.2412 11.234 55.4561 11.9001 55.4561 12.7344C55.4561 12.7773 55.4543 12.8561 55.4507 12.9707C55.4507 13.0853 55.4507 13.1676 55.4507 13.2178H51.4062C51.417 13.8874 51.5889 14.4102 51.9219 14.7861C52.2585 15.1585 52.7096 15.3447 53.2754 15.3447C53.8984 15.3447 54.5233 15.18 55.1499 14.8506L55.2896 15.5757C54.6916 15.9409 54.0094 16.1235 53.2432 16.1235Z" fill="#1F263E"/>
<ellipse cx="13.079" cy="11.9252" rx="3.07902" ry="2.92517" fill="#E47671"/>
</svg>
