<svg width="65" height="24" viewBox="0 0 65 24" fill="none" xmlns="http://www.w3.org/2000/svg">
<rect x="0.3" y="0.3" width="64.4" height="23.4" rx="11.7" fill="#FFF1F2"/>
<rect x="0.3" y="0.3" width="64.4" height="23.4" rx="11.7" stroke="#EE2E6B" stroke-width="0.6"/>
<path d="M19.9844 16H19.0552V8.05615H23.4648L23.4272 8.87793H19.9844V11.6655H23.2661V12.4551H19.9844V16ZM25.0225 13.0674C25.0225 13.7656 25.1764 14.326 25.4844 14.7485C25.7959 15.1675 26.2489 15.377 26.8433 15.377C27.4305 15.377 27.8727 15.1675 28.1699 14.7485C28.4707 14.3296 28.6211 13.7656 28.6211 13.0566C28.6211 12.3369 28.4725 11.7712 28.1753 11.3594C27.8817 10.944 27.4323 10.7363 26.8271 10.7363C26.2399 10.7363 25.7923 10.9476 25.4844 11.3701C25.1764 11.7926 25.0225 12.3584 25.0225 13.0674ZM29.5503 13.0513C29.5503 13.9644 29.3068 14.7056 28.8198 15.2749C28.3328 15.8407 27.6597 16.1235 26.8003 16.1235C25.9731 16.1235 25.3143 15.8371 24.8237 15.2642C24.3368 14.6912 24.0933 13.9554 24.0933 13.0566C24.0933 12.14 24.3385 11.3988 24.8291 10.833C25.3197 10.2673 25.9928 9.98438 26.8486 9.98438C27.6901 9.98438 28.3507 10.269 28.8306 10.8384C29.3104 11.4041 29.5503 12.1418 29.5503 13.0513ZM31.4785 13.0674C31.4785 13.7656 31.6325 14.326 31.9404 14.7485C32.252 15.1675 32.7049 15.377 33.2993 15.377C33.8866 15.377 34.3288 15.1675 34.626 14.7485C34.9268 14.3296 35.0771 13.7656 35.0771 13.0566C35.0771 12.3369 34.9285 11.7712 34.6313 11.3594C34.3377 10.944 33.8883 10.7363 33.2832 10.7363C32.696 10.7363 32.2484 10.9476 31.9404 11.3701C31.6325 11.7926 31.4785 12.3584 31.4785 13.0674ZM36.0063 13.0513C36.0063 13.9644 35.7629 14.7056 35.2759 15.2749C34.7889 15.8407 34.1157 16.1235 33.2563 16.1235C32.4292 16.1235 31.7703 15.8371 31.2798 15.2642C30.7928 14.6912 30.5493 13.9554 30.5493 13.0566C30.5493 12.14 30.7946 11.3988 31.2852 10.833C31.7757 10.2673 32.4489 9.98438 33.3047 9.98438C34.1462 9.98438 34.8068 10.269 35.2866 10.8384C35.7664 11.4041 36.0063 12.1418 36.0063 13.0513ZM39.1592 16.1074C38.5791 16.1074 38.1673 15.966 37.9238 15.6831C37.6803 15.4002 37.5514 14.9437 37.5371 14.3135V10.7739H36.6616L36.6992 10.1831L37.5317 10.1079L37.8379 8.75977L38.4287 8.73828V10.1079H40.0669V10.7739H38.4287V14.1523C38.4287 14.5999 38.4967 14.915 38.6328 15.0977C38.7689 15.2803 39.0016 15.3716 39.3311 15.3716C39.4492 15.3716 39.7052 15.3429 40.0991 15.2856L40.1367 15.9946C39.7106 16.0698 39.3848 16.1074 39.1592 16.1074ZM43.3325 8.39453C42.9601 8.39453 42.7041 8.50195 42.5645 8.7168C42.4284 8.93164 42.3604 9.30404 42.3604 9.83398V10.1079H43.7783V10.7739H42.3604V16H41.4634V10.7739H40.5073L40.5825 10.1831L41.4634 10.1079V9.84473C41.4705 9.08561 41.612 8.53597 41.8877 8.1958C42.167 7.85205 42.6164 7.68018 43.2358 7.68018C43.4757 7.68018 43.7694 7.70703 44.1167 7.76074L44.0576 8.46436C43.7389 8.41781 43.4972 8.39453 43.3325 8.39453ZM46.3296 15.3984C46.7557 15.3984 47.1299 15.2821 47.4521 15.0493C47.778 14.813 47.9875 14.4961 48.0806 14.0986V13.105C48.0627 13.105 47.9535 13.1139 47.7529 13.1318C47.556 13.1497 47.4271 13.1605 47.3662 13.1641C46.5892 13.2321 46.0467 13.3592 45.7388 13.5454C45.4344 13.7316 45.2822 14.0306 45.2822 14.4424C45.2822 14.7575 45.3753 14.9956 45.5615 15.1567C45.7477 15.3179 46.0037 15.3984 46.3296 15.3984ZM48.2793 16C48.2256 15.7708 48.1737 15.5238 48.1235 15.2588C47.7977 15.5846 47.4915 15.8102 47.2051 15.9355C46.9186 16.0609 46.582 16.1235 46.1953 16.1235C45.6439 16.1235 45.1999 15.9803 44.8633 15.6938C44.5303 15.4038 44.3638 14.9884 44.3638 14.4478C44.3638 13.8462 44.5911 13.4004 45.0459 13.1104C45.5042 12.8203 46.1631 12.6395 47.0225 12.5679C47.1406 12.5571 47.3179 12.5428 47.5542 12.5249C47.7941 12.5034 47.9731 12.4873 48.0913 12.4766V11.9556C48.0913 11.5402 47.9946 11.2323 47.8013 11.0317C47.6079 10.8312 47.3035 10.731 46.8882 10.731C46.3081 10.731 45.7227 10.8742 45.1318 11.1606C45.1139 11.1177 45.0674 10.9941 44.9922 10.79C44.917 10.5824 44.8776 10.4749 44.874 10.4678C45.1354 10.321 45.4451 10.2046 45.8032 10.1187C46.1649 10.0291 46.5319 9.98438 46.9043 9.98438C47.6383 9.98438 48.1665 10.1455 48.4888 10.4678C48.8146 10.7865 48.9775 11.3307 48.9775 12.1006V16H48.2793ZM52.1089 16.1074C51.536 16.1074 51.1296 15.9535 50.8896 15.6455C50.6533 15.3376 50.5352 14.8022 50.5352 14.0396V7.81982L51.4268 7.76611V13.6851C51.4268 13.9285 51.4285 14.1237 51.4321 14.2705C51.4393 14.4173 51.4536 14.5623 51.4751 14.7056C51.4966 14.8452 51.5252 14.9508 51.561 15.0225C51.5968 15.0941 51.6488 15.1603 51.7168 15.2212C51.7848 15.2785 51.8654 15.3179 51.9585 15.3394C52.0552 15.3573 52.1733 15.3662 52.313 15.3662C52.4276 15.3662 52.6532 15.3447 52.9897 15.3018L53.0381 16.0161C52.6693 16.077 52.3595 16.1074 52.1089 16.1074ZM55.1704 16.1074C54.5975 16.1074 54.1911 15.9535 53.9512 15.6455C53.7148 15.3376 53.5967 14.8022 53.5967 14.0396V7.81982L54.4883 7.76611V13.6851C54.4883 13.9285 54.4901 14.1237 54.4937 14.2705C54.5008 14.4173 54.5151 14.5623 54.5366 14.7056C54.5581 14.8452 54.5868 14.9508 54.6226 15.0225C54.6584 15.0941 54.7103 15.1603 54.7783 15.2212C54.8464 15.2785 54.9269 15.3179 55.02 15.3394C55.1167 15.3573 55.2349 15.3662 55.3745 15.3662C55.4891 15.3662 55.7147 15.3447 56.0513 15.3018L56.0996 16.0161C55.7308 16.077 55.4211 16.1074 55.1704 16.1074Z" fill="#1F263E"/>
<ellipse cx="12.079" cy="11.9252" rx="3.07902" ry="2.92517" fill="#EE3F84"/>
</svg>
