<svg width="62" height="24" viewBox="0 0 62 24" fill="none" xmlns="http://www.w3.org/2000/svg">
<rect x="0.3" y="0.3" width="56.4" height="23.4" rx="11.7" fill="#FFF1F2"/>
<rect x="0.3" y="0.3" width="56.4" height="23.4" rx="11.7" stroke="#E06C69" stroke-width="0.6"/>
<path d="M29.2402 16H28.1016L25.0615 12.208L24.3364 12.8472V16H23.4019V8.05615H24.3364V11.9556L27.8276 8.05615H28.9932L25.7705 11.6333L29.2402 16ZM30.9697 10.1079V16H30.0674V10.1079H30.9697ZM30.9697 7.96484V9.02832H30.0674V7.96484H30.9697ZM34.9604 15.3501C35.5513 15.3501 35.9899 15.1603 36.2764 14.7808C36.5664 14.4012 36.7114 13.8587 36.7114 13.1533C36.7114 12.3584 36.5718 11.7604 36.2925 11.3594C36.0168 10.9548 35.5692 10.7524 34.9497 10.7524C34.674 10.7524 34.4305 10.8115 34.2192 10.9297C34.008 11.0479 33.8379 11.2126 33.709 11.4238C33.5801 11.6351 33.4816 11.8786 33.4136 12.1543C33.3491 12.4264 33.3169 12.7254 33.3169 13.0513C33.3169 13.5096 33.3724 13.9071 33.4834 14.2437C33.598 14.5802 33.7806 14.8488 34.0312 15.0493C34.2819 15.2498 34.5916 15.3501 34.9604 15.3501ZM36.7275 15.146C36.5342 15.4432 36.2764 15.6795 35.9541 15.855C35.6318 16.0304 35.272 16.1182 34.8745 16.1182C34.0975 16.1182 33.4888 15.8424 33.0483 15.291C32.6079 14.736 32.3877 13.9823 32.3877 13.0298C32.3877 12.1203 32.6115 11.3862 33.0591 10.8276C33.5067 10.2655 34.1064 9.98438 34.8584 9.98438C35.2487 9.98438 35.6157 10.0703 35.9595 10.2422C36.3068 10.4105 36.5664 10.6379 36.7383 10.9243L36.7222 10.4141V7.81982L37.6084 7.76611V16H36.8457L36.7275 15.146ZM40.9277 16.1235C40.5267 16.1235 40.1561 16.0806 39.8159 15.9946C39.4793 15.9087 39.2054 15.7977 38.9941 15.6616L39.1069 14.9043C39.7049 15.223 40.2922 15.3823 40.8687 15.3823C41.7424 15.3823 42.1917 15.0744 42.2168 14.4585C42.2168 14.1971 42.1237 13.9912 41.9375 13.8408C41.7513 13.6904 41.3861 13.5221 40.8418 13.3359L40.396 13.1802C39.8804 13.0083 39.5116 12.7952 39.2896 12.541C39.0711 12.2868 38.9601 11.9699 38.9565 11.5903C38.9565 11.1284 39.141 10.7453 39.5098 10.4409C39.8822 10.1366 40.3906 9.98438 41.0352 9.98438C41.7012 9.98438 42.3081 10.1133 42.856 10.3711L42.5928 11.0586C42.0378 10.8294 41.5186 10.7148 41.0352 10.7148C40.6592 10.7148 40.3638 10.79 40.1489 10.9404C39.9377 11.0872 39.832 11.2949 39.832 11.5635C39.832 11.7926 39.909 11.9681 40.063 12.0898C40.217 12.2116 40.5249 12.3512 40.9868 12.5088C41.105 12.5518 41.2536 12.6019 41.4326 12.6592C42.027 12.8525 42.4478 13.0817 42.6948 13.3467C42.9419 13.6081 43.0654 13.9626 43.0654 14.4102C43.0583 14.9544 42.8631 15.377 42.48 15.6777C42.0968 15.9749 41.5794 16.1235 40.9277 16.1235Z" fill="#1F263E"/>
<ellipse cx="14.079" cy="11.9252" rx="3.07902" ry="2.92517" fill="#E47671"/>
</svg>
